# AST/ASF file generated using VICON BodyLanguage
# -----------------------------------------------
:version 1.10
:name VICON
:units
  mass 1.0
  length 0.45
  angle deg
:documentation
   .ast/.asf automatically generated from VICON data using
   VICON BodyBuilder and BodyLanguage model FoxedUp or BRILLIANT.MOD
:root
   order TX TY TZ RX RY RZ
   axis XYZ
   position 0 0 0  
   orientation 0 0 0 
:bonedata
  begin
     id 1 
     name lhipjoint
     direction 0.523584 -0.783993 0.333487 
     length 2.44404 
     axis 0 0 0  XYZ
  end
  begin
     id 2 
     name lfemur
     direction 0.34202 -0.939693 0  
     length 7.29523  
     axis 0 0 20  XYZ
    dof rx ry rz
    limits (-160.0 20.0)
           (-70.0 70.0)
           (-60.0 70.0)
  end
  begin
     id 3 
     name ltibia
     direction 0.34215 -0.939645 0   
     length 7.81194   
     axis 0 0 20   XYZ
    dof rx
    limits (-10.0 170.0)
  end
  begin
     id 4 
     name lfoot
     direction 0.0941847 -0.25877 0.961336   
     length 2.41437   
     axis -90 7.62852e-016 20   XYZ
    dof rx rz
    limits (-45.0 90.0)
           (-70.0 20.0)
  end
  begin
     id 5 
     name ltoes
     direction 1.53526e-011 -4.21768e-011 1   
     length 1.2048   
     axis -90 7.62852e-016 20   XYZ
    dof rx
    limits (-90.0 20.0)
  end
  begin
     id 6 
     name rhipjoint
     direction -0.46599 -0.814191 0.346332   
     length 2.35339  
     axis 0 0 0  XYZ 
  end
  begin
     id 7 
     name rfemur
     direction -0.34202 -0.939693 0   
     length 7.34966   
     axis 0 0 -20   XYZ
    dof rx ry rz
    limits (-160.0 20.0)
           (-70.0 70.0)
           (-70.0 60.0)
  end
  begin
     id 8 
     name rtibia
     direction -0.34202 -0.939693 0   
     length 7.89934   
     axis 0 0 -20   XYZ
    dof rx
    limits (-10.0 170.0)
 end
 begin
     id 9 
     name rfoot
     direction -0.0975468 -0.268008 0.958466   
     length 2.27725  
     axis -90 -7.62852e-016 -20   XYZ
    dof rx rz
    limits (-45.0 90.0)
           (-20.0 70.0)
  end
  begin
     id 10 
     name rtoes
     direction -1.53563e-011 -4.22022e-011 1   
     length 1.13683   
     axis -90 -7.62852e-016 -20   XYZ
    dof rx
    limits (-90.0 20.0)
  end
  begin
     id 11 
     name lowerback
     direction -0.00456414 0.999242 -0.0386661   
     length 2.16968   
     axis 0 0 0   XYZ
    dof rx ry rz
    limits (-20.0 45.0)
           (-30.0 30.0)
           (-30.0 30.0)
  end
  begin
     id 12 
     name upperback
     direction 0.0297078 0.998988 0.0337799   
     length 2.15674   
     axis 0 0 0   XYZ
    dof rx ry rz
    limits (-20.0 45.0)
           (-30.0 30.0)
           (-30.0 30.0)
  end
  begin
     id 13 
     name thorax
     direction 0.0309305 0.998202 0.0513506   
     length 2.16319   
     axis 0 0 0   XYZ
    dof rx ry rz
    limits (-20.0 45.0)
           (-30.0 30.0)
           (-30.0 30.0)
  end
  begin
     id 14 
     name lowerneck
     direction -0.103039 0.983474 0.148872   
     length 1.64318   
     axis 0 0 0   XYZ
    dof rx ry rz
    limits (-20.0 45.0)
           (-30.0 30.0)
           (-30.0 30.0)
  end
  begin
     id 15 
     name upperneck
     direction 0.128124 0.971079 -0.201469   
     length 1.68242   
     axis 0 0 0   XYZ
    dof rx ry rz
    limits (-20.0 45.0)
           (-30.0 30.0)
           (-30.0 30.0)
  end
  begin
     id 16
     name head
     direction 0.0496365 0.994919 -0.0875941  
     length 1.70108  
     axis 0 0 0   XYZ
    dof rx ry rz
    limits (-20.0 45.0)
           (-30.0 30.0)
           (-30.0 30.0)
  end
  begin
     id 17 
     name lclavicle
     direction 0.887148 0.430222 -0.166967  
     length 3.25763  
     axis 0 0 0   XYZ
    dof ry rz
    limits (-20.0 10.0)
           (0.0 20.0)
  end
  begin
     id 18 
     name lhumerus
     direction 1 -4.48962e-011 1.92156e-027   
     length 5.10755   
     axis 180 -30 -90   XYZ
    dof rx ry rz
    limits (-60.0 90.0)
           (-90.0 90.0)
           (-90.0 90.0)
  end
  begin
     id 19
     name lradius
     direction 1 -4.48958e-011 7.10963e-027   
     length 3.36253   
     axis 180 -30 -90   XYZ
    dof rx
    limits (-10.0 170.0)
  end
  begin
     id 20
     name lwrist
     direction 1 -4.48946e-011 1.82396e-026   
     length 1.68127   
     axis -1.15222e-014 90 90   XYZ
    dof ry
    limits (-180.0 0.0)
 end
  begin
     id 21 
     name lhand
     direction 1 -4.48919e-011 3.64759e-026   
     length 0.619088   
     axis -2.32787e-014 90 90   XYZ
    dof rx rz
    limits (-90.0 90.0)
           (-45.0 45.0)
  end
  begin
     id 22 
     name lfingers
     direction 1 -4.49012e-011 7.29744e-026   
     length 0.499125   
     axis -4.6558e-014 90 90   XYZ
    dof rx
    limits (0.0 90.0)
  end
  begin
     id 23
     name lthumb
     direction 0.707107 -6.35028e-011 0.707107   
     length 0.716646   
     axis -90 45 3.78391e-014   XYZ
    dof rx rz
    limits (-45.0 45.0)
           (-45.0 45.0)
  end
  begin
     id 24 
     name rclavicle
     direction -0.82886 0.533198 -0.169384   
     length 3.20647  
     axis 0 0 0   XYZ 
    dof ry rz
    limits (-10.0 20.0)
           (-20.0 0.0)
  end
  begin
     id 25 
     name rhumerus
     direction -1 -4.48973e-011 3.06863e-027  
     length 5.27387   
     axis 180 30 90   XYZ
    dof rx ry rz
    limits (-90.0 60.0)
           (-90.0 90.0)
           (-90.0 90.0)
  end
  begin
     id 26 
     name rradius
     direction -1 -4.48988e-011 9.4797e-027   
     length 3.40144   
     axis 180 30 90   XYZ
    dof rx
    limits (-10.0 170.0)
  end
  begin
     id 27 
     name rwrist
     direction -1 -4.48897e-011 1.82366e-026   
     length 1.70072   
     axis -1.15222e-014 -90 -90   XYZ
    dof ry
    limits (-180.0 0.0)
  end
  begin
     id 28
     name rhand
     direction -1 -4.48965e-011 3.64815e-026   
     length 0.742821   
     axis -2.32787e-014 -90 -90   XYZ
    dof rx rz
    limits (-90.0 90.0)
           (-45.0 45.0)
  end
  begin
     id 29
     name rfingers
     direction -1 -4.49016e-011 7.29754e-026   
     length 0.598881   
     axis -4.6558e-014 -90 -90   XYZ
    dof rx
    limits (0.0 90.0)
  end
  begin
     id 30
     name rthumb
     direction -0.707107 -6.3488e-011 0.707107   
     length 0.859877   
     axis -90 -45 -3.78391e-014   XYZ
    dof rx rz
    limits (-45.0 45.0)
           (-45.0 45.0)
  end
:hierarchy
  begin
    root lhipjoint rhipjoint lowerback
    lhipjoint lfemur
    lfemur ltibia
    ltibia lfoot
    lfoot ltoes
    rhipjoint rfemur
    rfemur rtibia
    rtibia rfoot
    rfoot rtoes
    lowerback upperback
    upperback thorax
    thorax lowerneck lclavicle rclavicle
    lowerneck upperneck
    upperneck head
    lclavicle lhumerus
    lhumerus lradius
    lradius lwrist
    lwrist lhand lthumb
    lhand lfingers
    rclavicle rhumerus
    rhumerus rradius
    rradius rwrist
    rwrist rhand rthumb
    rhand rfingers
  end

#!OML:ASF F:\Work\Patient Classification 1\justin\Session 1\justin.ASF
:FULLY-SPECIFIED
:DEGREES
2591
root -0.686974 18.5704 -6.53908 11.8844 28.4768 -11.7874
lowerback 24.3304 7.23652 -4.38166
upperback 7.27181 8.11426 -3.42427
thorax -5.43763 3.98908 -3.56225
lowerneck -22.1468 -7.25819 -12.1148
upperneck 10.8749 -8.76392 14.9673
head 8.24759 -3.29644 5.83873
rclavicle -3.97569e-015 -8.74653e-015
rhumerus 68.4776 -2.69441 -64.4619
rradius 20.8374
rwrist -1.13781
rhand -32.4969 7.81828
rfingers 7.12502
rthumb -5.72846 -22.0843
lclavicle -3.97569e-015 -8.74653e-015
lhumerus 77.8916 -2.0733 75.5978
lradius 17.4358
lwrist -2.1105
lhand -13.321 36.0256
lfingers 7.12502
lthumb 12.7837 65.6142
rfemur -23.9445 -14.2751 39.5116
rtibia 11.4604
rfoot -4.17615 -12.6557
rtoes 2.42676
lfemur -32.3489 -7.54175 -0.565105
ltibia 19.356
lfoot -1.59114 -14.8774
ltoes -17.1667
2592
root -0.698409 18.5668 -6.53856 12.0935 28.6379 -11.8898
lowerback 24.3739 7.19635 -4.56565
upperback 7.32249 8.01953 -3.40593
thorax -5.43137 3.94237 -3.41612
lowerneck -22.3264 -7.3492 -12.4123
upperneck 10.799 -8.79905 15.1212
head 8.28015 -3.30609 5.9348
rclavicle -2.70347e-014 -2.46493e-014
rhumerus 68.9147 -2.88438 -64.3836
rradius 20.752
rwrist -1.31068
rhand -31.8796 8.21804
rfingers 7.12502
rthumb -5.13249 -21.6998
lclavicle -2.70347e-014 -2.46493e-014
lhumerus 77.5653 -2.14317 70.4947
lradius 18.8476
lwrist 2.56158
lhand -13.2923 36.5819
lfingers 7.12502
lthumb 12.8114 66.1688
rfemur -24.2508 -13.8502 39.6172
rtibia 11.4877
rfoot -4.18438 -13.1118
rtoes 2.61489
lfemur -32.7038 -7.48241 -0.370595
ltibia 19.3059
lfoot -1.4785 -14.9361
ltoes -17.3908
2593
root -0.701513 18.5644 -6.53835 12.1973 28.7524 -12.0994
lowerback 24.4253 7.28753 -4.46355
upperback 7.36907 8.15528 -3.43716
thorax -5.38413 4.00846 -3.54682
lowerneck -22.3175 -7.52702 -12.4768
upperneck 10.646 -9.02338 15.1994
head 8.26892 -3.41093 5.93413
rclavicle -2.06736e-014 -3.18055e-014
rhumerus 69.108 -3.47669 -64.6712
rradius 20.7078
rwrist -1.54701
rhand -31.1786 8.57376
rfingers 7.12502
rthumb -4.45562 -21.3594
lclavicle -2.06736e-014 -3.18055e-014
lhumerus 77.903 -2.36963 70.7242
lradius 18.8126
lwrist 1.99627
lhand -12.4619 35.3327
lfingers 7.12502
lthumb 13.6119 64.8677
rfemur -24.4828 -13.6745 39.8518
rtibia 11.4578
rfoot -4.1308 -13.28
rtoes 2.73804
lfemur -32.9565 -7.47379 -0.0768029
ltibia 19.3135
lfoot -1.47103 -14.891
ltoes -17.6485
2594
root -0.699238 18.5662 -6.53395 12.2779 28.9131 -12.2369
lowerback 24.4707 7.50774 -4.23171
upperback 7.40105 8.47985 -3.57261
thorax -5.30948 4.16842 -3.91513
lowerneck -22.0317 -7.78122 -12.34
upperneck 10.3723 -9.45368 15.4037
head 8.20208 -3.60673 5.91139
rclavicle 3.10104e-014 -2.54444e-014
rhumerus 68.8425 -4.36242 -64.3158
rradius 20.7558
rwrist -1.87834
rhand -31.1318 8.47787
rfingers 7.12502
rthumb -4.41041 -21.4562
lclavicle 3.10104e-014 -2.54444e-014
lhumerus 78.528 -3.09483 72.3271
lradius 18.2783
lwrist 0.246536
lhand -11.9217 34.175
lfingers 7.12502
lthumb 14.1324 63.6743
rfemur -24.623 -13.8304 40.0765
rtibia 11.3345
rfoot -4.02585 -13.2151
rtoes 2.45139
lfemur -33.146 -7.45876 0.0972651
ltibia 19.3853
lfoot -1.48226 -14.9516
ltoes -17.4286
2595
root -0.699113 18.5683 -6.53027 12.4001 29.1054 -12.3145
lowerback 24.5379 7.64289 -4.02218
upperback 7.35919 8.67976 -3.79496
thorax -5.3156 4.26851 -4.33876
lowerneck -21.5176 -7.88377 -11.9889
upperneck 10.0052 -9.75481 15.6512
head 8.0408 -3.74153 5.89098
rclavicle 3.89618e-014 1.51076e-014
rhumerus 68.4207 -4.94296 -63.2456
rradius 20.8356
rwrist -2.97295
rhand -31.3498 8.42161
rfingers 7.12502
rthumb -4.62094 -21.508
lclavicle 3.89618e-014 1.51076e-014
lhumerus 78.8932 -3.72624 72.9551
lradius 17.9879
lwrist -0.587328
lhand -11.9838 33.8417
lfingers 7.12502
lthumb 14.0726 63.3452
rfemur -24.7509 -13.9554 40.2451
rtibia 11.1806
rfoot -3.92095 -13.2076
rtoes 2.2868
lfemur -33.4005 -7.46307 0.216929
ltibia 19.4869
lfoot -1.46797 -15.0283
ltoes -17.1048
2596
root -0.697298 18.5698 -6.53761 12.6178 29.0889 -12.3527
lowerback 24.5517 7.64237 -4.14292
upperback 7.34275 8.64233 -3.85946
thorax -5.34777 4.24949 -4.33603
lowerneck -21.4403 -7.84236 -11.9031
upperneck 9.81254 -9.71969 15.7244
head 7.96055 -3.72221 5.90618
rclavicle 4.37326e-014 2.38542e-015
rhumerus 68.5553 -4.66731 -62.2484
rradius 20.7956
rwrist -3.97382
rhand -31.6474 8.11133
rfingers 7.12502
rthumb -4.90827 -21.8118
lclavicle 4.37326e-014 2.38542e-015
lhumerus 79.0142 -3.53069 73.5716
lradius 17.7976
lwrist -1.20918
lhand -12.5767 33.9146
lfingers 7.12502
lthumb 13.5012 63.457
rfemur -24.9806 -13.8429 40.3123
rtibia 11.0774
rfoot -3.78529 -13.2027
rtoes 2.49534
lfemur -33.7091 -7.4405 0.302185
ltibia 19.5589
lfoot -1.48017 -14.9114
ltoes -17.1444
2597
root -0.687199 18.5695 -6.55163 12.8936 28.9 -12.3484
lowerback 24.4427 7.3771 -4.66407
upperback 7.49095 8.21105 -3.63746
thorax -5.2501 4.03715 -3.66144
lowerneck -22.4839 -7.75258 -12.6672
upperneck 10.1555 -9.29608 15.7262
head 8.21944 -3.50043 6.0989
rclavicle -2.22639e-014 1.59028e-014
rhumerus 69.5985 -3.3575 -61.7147
rradius 20.7602
rwrist -4.00941
rhand -31.917 7.29949
rfingers 7.12502
rthumb -5.16856 -22.6175
lclavicle -2.22639e-014 1.59028e-014
lhumerus 78.8549 -2.11319 72.9116
lradius 18.0203
lwrist -0.106952
lhand -14.0258 35.1825
lfingers 7.12502
lthumb 12.1043 64.8124
rfemur -25.2618 -13.87 40.3731
rtibia 10.9633
rfoot -3.53193 -12.9224
rtoes 2.36629
lfemur -34.0098 -7.43514 0.323627
ltibia 19.5763
lfoot -1.41183 -14.5948
ltoes -17.0481
2598
root -0.67583 18.5669 -6.56334 13.1204 28.8709 -12.3575
lowerback 24.5424 7.44471 -4.42353
upperback 7.41694 8.32576 -3.84856
thorax -5.31221 4.09471 -4.07269
lowerneck -22.3337 -7.8699 -12.4294
upperneck 9.98934 -9.5235 15.7005
head 8.16104 -3.61021 6.01088
rclavicle 1.1291e-013 -4.13472e-014
rhumerus 69.4949 -3.85499 -62.2975
rradius 20.6156
rwrist -3.13775
rhand -31.9611 6.9464
rfingers 7.12502
rthumb -5.21119 -22.9695
lclavicle 1.1291e-013 -4.13472e-014
lhumerus 78.8742 -2.51757 71.7249
lradius 18.2843
lwrist 0.655586
lhand -14.0448 35.1932
lfingers 7.12502
lthumb 12.0859 64.8242
rfemur -25.47 -14.1284 40.5077
rtibia 10.7483
rfoot -3.28075 -12.5764
rtoes 2.30074
lfemur -34.3139 -7.46261 0.325322
ltibia 19.5466
lfoot -1.24848 -14.3614
ltoes -16.6386
2599
root -0.675475 18.5667 -6.55965 13.1477 29.0536 -12.446
lowerback 24.7179 7.48124 -4.19706
upperback 7.39715 8.3996 -4.02228
thorax -5.35877 4.1328 -4.42989
lowerneck -22.1115 -7.94496 -12.2996
upperneck 9.80386 -9.7044 15.9038
head 8.09877 -3.68541 6.03062
rclavicle 9.46215e-014 -4.45278e-014
rhumerus 69.2934 -4.22287 -61.5731
rradius 20.6295
rwrist -3.74417
rhand -32.0537 6.86661
rfingers 7.12502
rthumb -5.30057 -23.0471
lclavicle 9.46215e-014 -4.45278e-014
lhumerus 79.1174 -2.98296 71.1748
lradius 18.275
lwrist 0.887755
lhand -14.6017 35.8915
lfingers 7.12502
lthumb 11.5489 65.5534
rfemur -25.6073 -14.1083 40.6062
rtibia 10.8638
rfoot -3.41871 -12.7082
rtoes 2.47717
lfemur -34.6235 -7.41951 0.380111
ltibia 19.834
lfoot -1.35137 -14.4671
ltoes -16.5336
